<svg width="32" height="34" viewBox="0 0 32 34" fill="none" xmlns="http://www.w3.org/2000/svg">
<path d="M13.5385 2.42857H12.9231V0.607143C12.9231 0.272 12.648 0 12.3077 0H0.615385C0.275692 0 0 0.272 0 0.607143C0 0.942286 0.275692 1.21429 0.615385 1.21429H11.6923V8.5C11.6923 10.1739 10.312 11.5357 8.61539 11.5357H4.30769C2.61108 11.5357 1.23077 10.1739 1.23077 8.5V3.03571C1.23077 2.70057 0.955077 2.42857 0.615385 2.42857C0.275692 2.42857 0 2.70057 0 3.03571V8.5C0 10.843 1.93231 12.75 4.30769 12.75H8.61539C10.9902 12.75 12.9231 10.843 12.9231 8.5V7.89286H13.5385C14.896 7.89286 16 6.80364 16 5.46429V4.85714C16 3.51779 14.896 2.42857 13.5385 2.42857ZM14.7692 5.46429C14.7692 6.13396 14.2172 6.67857 13.5385 6.67857H12.9231V3.64286H13.5385C14.2172 3.64286 14.7692 4.18746 14.7692 4.85714V5.46429Z" transform="translate(0 8.5) scale(2)" fill="#24292E"/>
<path d="M0.615385 2.42857C0.955077 2.42857 1.23077 2.15657 1.23077 1.82143V0.607143C1.23077 0.272 0.955077 0 0.615385 0C0.275692 0 0 0.272 0 0.607143V1.82143C0 2.15657 0.275692 2.42857 0.615385 2.42857Z" transform="translate(6.15234 2.42969) scale(2)" fill="#24292E"/>
<path d="M0.615385 3.64286C0.955077 3.64286 1.23077 3.37086 1.23077 3.03571V0.607143C1.23077 0.272 0.955077 0 0.615385 0C0.275692 0 0 0.272 0 0.607143V3.03571C0 3.37086 0.275692 3.64286 0.615385 3.64286Z" transform="translate(11.0781) scale(2)" fill="#24292E"/>
<path d="M0.615385 2.42857C0.955692 2.42857 1.23077 2.15657 1.23077 1.82143V0.607143C1.23077 0.272 0.955692 0 0.615385 0C0.275692 0 0 0.272 0 0.607143V1.82143C0 2.15657 0.275692 2.42857 0.615385 2.42857Z" transform="translate(16 2.42969) scale(2)" fill="#24292E"/>
</svg>
